HIERARCHY
ROOT ui
{
	 OFFSET 0 0 0
	 CHANNELS 3 XPosition YPosition Z Position
	 EndSite
	 {
	 OFFSET 0 -1 0
	 }
}
ROOT li
{
	 OFFSET 0 0 0
	 CHANNELS 3 XPosition YPosition Z Position
	 EndSite
	 {
	 OFFSET 0 -1 0
	 }
}
ROOT ul
{
	 OFFSET 0 0 0
	 CHANNELS 3 XPosition YPosition Z Position
	 EndSite
	 {
	 OFFSET 0 -1 0
	 }
}
ROOT ll
{
	 OFFSET 0 0 0
	 CHANNELS 3 XPosition YPosition Z Position
	 EndSite
	 {
	 OFFSET 0 -1 0
	 }
}
ROOT tt
{
	 OFFSET 0 0 0
	 CHANNELS 3 XPosition YPosition Z Position
	 EndSite
	 {
	 OFFSET 0 -1 0
	 }
}
ROOT tb
{
	 OFFSET 0 0 0
	 CHANNELS 3 XPosition YPosition Z Position
	 EndSite
	 {
	 OFFSET 0 -1 0
	 }
}
ROOT td
{
	 OFFSET 0 0 0
	 CHANNELS 3 XPosition YPosition Z Position
	 EndSite
	 {
	 OFFSET 0 -1 0
	 }
}
ROOT v
{
	 OFFSET 0 0 0
	 CHANNELS 3 XPosition YPosition Z Position
	 EndSite
	 {
	 OFFSET 0 -1 0
	 }
}
ROOT bn
{
	 OFFSET 0 0 0
	 CHANNELS 3 XPosition YPosition Z Position
	 EndSite
	 {
	 OFFSET 0 -1 0
	 }
}
MOTION
Frames: 24
Frame Time: 0.002
0.008007734298706055	-3.195500001311302E-5	0		0.5347178955078125	-2.392668212890625	0		-1.000989990234375	0.0063370089530944826	0		-0.6594112548828125	-2.55904296875	0		1.4913831787109375	-0.794275146484375	0		3.219270751953125	-0.16140835571289064	0		4.85015869140625	-0.017389266967773438	0		5.671734375	0.22579692077636718	0		-0.26047171020507814	5.91770361328125	0		
0.08960225677490234	0.007528378963470459	0		0.5090023803710938	-2.38085888671875	0		-1.0703580322265625	0.01792053985595703	0		-0.6971878051757813	-2.549906982421875	0		1.4937169189453126	-0.7979541625976563	0		3.238808837890625	-0.15655572509765625	0		4.840794921875	-0.006419641971588135	0		5.674181640625	0.218356201171875	0		-0.2641277160644531	5.91537158203125	0		
0.07523780059814453	0.00827513027191162	0		0.51831298828125	-2.37747705078125	0		-1.0088399658203124	0.008888786315917968	0		-0.6887770385742188	-2.536331298828125	0		1.481305908203125	-0.7914450073242187	0		3.214470703125	-0.1521593017578125	0		4.8454267578125	-0.006629016876220703	0		5.658322265625	0.23914129638671874	0		-0.23751521301269532	5.9226689453125	0		
0.07400499725341797	0.0028705720901489257	0		0.4807633056640625	-2.37949072265625	0		-1.027880615234375	0.018874387741088867	0		-0.6864554443359375	-2.546671630859375	0		1.471966552734375	-0.7959589233398437	0		3.173217041015625	-0.1575264892578125	0		4.839255859375	-0.00768605089187622	0		5.6509912109375	0.2251022186279297	0		-0.10952798461914062	5.9426826171875	0		
0.06406439208984376	-4.061410129070282E-4	0		0.5014721069335938	-2.383225341796875	0		-1.0259483642578124	0.005605218887329101	0		-0.6947686157226562	-2.54986279296875	0		1.4659473876953124	-0.7964915161132813	0		3.207249267578125	-0.16182150268554688	0		4.82028857421875	-0.013543028831481934	0		5.65095458984375	0.2057145233154297	0		-0.11456266021728516	5.942380859375	0		
0.05846947479248047	-7.184060215950012E-4	0		0.478466552734375	-2.38937744140625	0		-1.103484375	0.010381035804748535	0		-0.6986822509765624	-2.547094970703125	0		1.4602408447265625	-0.7970003662109375	0		3.18664599609375	-0.16137969970703125	0		4.81776953125	-0.008561721801757812	0		5.6427626953125	0.22127336120605468	0		-0.25259889221191406	5.92182373046875	0		
0.057245731353759766	0.0019334679841995239	0		0.5029087219238281	-2.388122802734375	0		-1.0317655029296875	0.008229974746704102	0		-0.728335205078125	-2.550973876953125	0		1.457924072265625	-0.7935224609375	0		3.19145263671875	-0.1552242889404297	0		4.81250537109375	-0.009492057800292969	0		5.64191455078125	0.23151226806640626	0		-0.2911473388671875	5.9160166015625	0		
-0.025654067993164064	0.003689419984817505	0		0.46183624267578127	-2.376980712890625	0		-1.11366455078125	0.010110066413879395	0		-0.7074999389648438	-2.54549755859375	0		1.45290380859375	-0.7939768676757812	0		3.179487060546875	-0.15780450439453125	0		4.81756982421875	-0.011502190589904785	0		5.64260595703125	0.21758596801757812	0		-0.1279646530151367	5.94156689453125	0		
0.043709907531738285	-0.001549239993095398	0		0.47988186645507813	-2.384594970703125	0		-1.046299560546875	0.005027396202087402	0		-0.76125390625	-2.536011474609375	0		1.448233154296875	-0.7944019775390625	0		3.190890625	-0.15864865112304688	0		4.80300634765625	-0.011193337440490723	0		5.63219775390625	0.21623931884765624	0		-0.26511752319335935	5.92110986328125	0		
-0.037505348205566405	2.501969933509827E-4	0		0.4484227600097656	-2.3815185546875	0		-1.05053466796875	0.004910430908203125	0		-0.7189254150390625	-2.547793212890625	0		1.4408551025390626	-0.7987568359375	0		3.16166650390625	-0.15690211486816405	0		4.79876953125	-0.011963837623596192	0		5.6262451171875	0.20274864196777342	0		-0.2696779479980469	5.92191943359375	0		
0.03557460021972656	-0.0020068349838256836	0		0.44427267456054687	-2.381780517578125	0		-1.1263724365234375	0.00978439998626709	0		-0.7939913330078125	-2.539968017578125	0		1.445830078125	-0.8022452392578125	0		3.161818115234375	-0.15250445556640624	0		4.78586962890625	-0.012561400413513184	0		5.6305556640625	0.19594546508789062	0		-0.2709812622070312	5.9197060546875	0		
-0.037877769470214845	0.006752162933349609	0		0.4554388732910156	-2.384224853515625	0		-1.04890625	0.01159236717224121	0		-0.7089161987304687	-2.548301513671875	0		1.4503319091796876	-0.7916944580078125	0		3.183205078125	-0.15535572814941406	0		4.79027197265625	-0.015341412544250489	0		5.63094970703125	0.21185983276367187	0		-0.30705377197265626	5.912990234375	0		
0.035859752655029296	0.004519669055938721	0		0.4680264892578125	-2.380663330078125	0		-1.056201904296875	0.007571544170379639	0		-0.76026904296875	-2.5387490234375	0		1.432961669921875	-0.7958121948242187	0		3.154978271484375	-0.15348529052734375	0		4.792138671875	-0.0080360050201416	0		5.62149560546875	0.21089585876464845	0		-0.277633056640625	5.92040234375	0		
-0.04809395980834961	0.002485001087188721	0		0.4608262023925781	-2.38580419921875	0		-1.0641627197265624	0.004579446792602539	0		-0.7424025268554687	-2.53812841796875	0		1.4299708251953125	-0.7960946044921875	0		3.136059814453125	-0.15269844055175782	0		4.78024609375	-0.006491459846496582	0		5.616482421875	0.19776730346679688	0		-0.28002859497070315	5.920271484375	0		
0.023241266250610352	-0.0026805429458618166	0		0.45802548217773437	-2.38597998046875	0		-1.061722900390625	0.007460738182067871	0		-0.7702971801757813	-2.5438544921875	0		1.4242470703125	-0.8003087768554688	0		3.139332763671875	-0.16117994689941406	0		4.78253125	-0.015095979690551757	0		5.62173876953125	0.19476353454589843	0		-0.16396742248535157	5.931509765625	0		
0.02095511054992676	-0.002803455114364624	0		0.4384707336425781	-2.3918974609375	0		-1.0640081787109374	0.007422535896301269	0		-0.7269406127929687	-2.555559814453125	0		1.4308555908203124	-0.8036670532226563	0		3.152032958984375	-0.16175663757324218	0		4.780244140625	-0.015590474128723145	0		5.61297802734375	0.19578056335449218	0		-0.3180419006347656	5.9145361328125	0		
0.018094274520874025	0.00510168981552124	0		0.43050619506835935	-2.378952880859375	0		-1.14295947265625	0.009479775428771972	0		-0.7698431396484375	-2.53703662109375	0		1.43187939453125	-0.7999210205078126	0		3.14923095703125	-0.14908099365234376	0		4.78543798828125	-0.0041466689109802245	0		5.61868408203125	0.19292486572265624	0		-0.28550164794921873	5.91997265625	0		
0.021354249954223633	-6.37430027127266E-5	0		0.4556432189941406	-2.381458740234375	0		-1.0676497802734375	0.007372890949249268	0		-0.7377601318359375	-2.542559326171875	0		1.4211990966796875	-0.7969856567382813	0		3.16436572265625	-0.16263011169433594	0		4.776599609375	-0.016467741012573242	0		5.61330810546875	0.2095541229248047	0		-0.28676528930664064	5.9198984375	0		
0.015934761047363282	-0.003090723991394043	0		0.4230885314941406	-2.383129150390625	0		-1.0690264892578125	0.007358253002166748	0		-0.7742535400390625	-2.539096923828125	0		1.41977099609375	-0.7971593627929687	0		3.151050537109375	-0.157744873046875	0		4.77522119140625	-0.016855892181396485	0		5.60939501953125	0.19679107666015624	0		-0.16861955261230469	5.92913818359375	0		
0.014831768989562987	-0.0031654720306396483	0		0.4487982482910156	-2.38661376953125	0		-1.075171142578125	0.004419857978820801	0		-0.7524669189453125	-2.536453857421875	0		1.4186207275390625	-0.797317626953125	0		3.12498388671875	-0.15464903259277343	0		4.7741171875	-0.017213827133178712	0		5.612779296875	0.17864993286132813	0		-0.3036561279296875	5.90999267578125	0		
0.013981426239013672	-0.0032324268817901613	0		0.4307314453125	-2.392460205078125	0		-1.147956298828125	0.009446333885192872	0		-0.7666285400390624	-2.548290283203125	0		1.423625244140625	-0.8045477905273437	0		3.130009521484375	-0.16297366333007812	0		4.76426708984375	-0.017415403366088867	0		5.61216650390625	0.17800706481933593	0		-0.30319317626953124	5.90892919921875	0		
0.02045819091796875	0.0036060659885406494	0		0.46205343627929685	-2.388003173828125	0		-1.0575595703125	0.010135332107543945	0		-0.7633261108398437	-2.5443681640625	0		1.4311181640625	-0.793796875	0		3.173416748046875	-0.16082861328125	0		4.7708154296875	-0.005822672843933106	0		5.60751953125	0.1914005584716797	0		-0.3214661865234375	5.91214453125	0		
0.016974990844726562	-4.0387800335884097E-4	0		0.4256761474609375	-2.376558837890625	0		-1.067969482421875	0.01127756404876709	0		-0.7486727905273437	-2.5306025390625	0		1.4285966796875	-0.7978887329101563	0		3.12713232421875	-0.1503692626953125	0		4.7763017578125	-0.012189549446105957	0		5.61140673828125	0.1768656005859375	0		-0.15619313049316405	5.93971923828125	0		
0.01671234703063965	-4.513489902019501E-4	0		0.4461622314453125	-2.386927490234375	0		-1.0722891845703124	0.007336042881011963	0		-0.7531038818359375	-2.53455810546875	0		1.4163004150390626	-0.7978240966796875	0		3.128674560546875	-0.16358065795898438	0		4.7719521484375	-0.018386968612670897	0		5.59769482421875	0.18203306579589842	0		-0.30365838623046876	5.90881396484375	0		
